<svg width="35" height="35" viewBox="0 0 35 35" fill="none" xmlns="http://www.w3.org/2000/svg">
<rect width="35" height="35" rx="17.5" fill="#2A85FF"/>
<path opacity="0.7" d="M26.668 17.3727C26.668 17.9459 26.6284 18.4795 26.5494 18.9736H14.0383C14.1174 20.3374 14.572 21.4245 15.4021 22.2348C16.252 23.0254 17.3094 23.4207 18.5743 23.4207C20.4124 23.4207 21.707 22.6598 22.4581 21.1379H26.1047C25.6105 22.64 24.7112 23.8753 23.4068 24.8438C22.1023 25.7925 20.4915 26.2668 18.5743 26.2668C17.0129 26.2668 15.6294 25.9209 14.4237 25.2292C13.2181 24.5176 12.2694 23.5294 11.5776 22.2645C10.9056 20.9798 10.5696 19.4974 10.5696 17.8174C10.5696 16.1374 10.9056 14.6649 11.5776 13.4C12.2694 12.1153 13.228 11.1271 14.4534 10.4353C15.6985 9.74353 17.1216 9.39765 18.7225 9.39765C20.2642 9.39765 21.6378 9.73365 22.8435 10.4056C24.0491 11.0776 24.988 12.0165 25.66 13.2221C26.332 14.4278 26.668 15.8113 26.668 17.3727ZM23.14 16.6612C23.1202 15.3172 22.6755 14.2499 21.8058 13.4593C20.9362 12.6489 19.859 12.2438 18.5743 12.2438C17.3687 12.2438 16.3409 12.6489 15.491 13.4593C14.6609 14.2499 14.1865 15.3172 14.068 16.6612H23.14Z" fill="white"/>
<path d="M24.1953 17.3727C24.1953 17.9459 24.1558 18.4795 24.0767 18.9736H11.5656C11.6447 20.3374 12.0993 21.4245 12.9294 22.2348C13.7793 23.0254 14.8367 23.4207 16.1016 23.4207C17.9398 23.4207 19.2344 22.6598 19.9854 21.1379H23.632C23.1379 22.64 22.2386 23.8753 20.9341 24.8438C19.6296 25.7925 18.0188 26.2668 16.1016 26.2668C14.5402 26.2668 13.1567 25.9209 11.9511 25.2292C10.7454 24.5176 9.79671 23.5294 9.10494 22.2645C8.43294 20.9798 8.09694 19.4974 8.09694 17.8174C8.09694 16.1374 8.43294 14.6649 9.10494 13.4C9.79671 12.1153 10.7553 11.1271 11.9807 10.4353C13.2259 9.74353 14.6489 9.39765 16.2499 9.39765C17.7915 9.39765 19.1652 9.73365 20.3708 10.4056C21.5765 11.0776 22.5153 12.0165 23.1873 13.2221C23.8593 14.4278 24.1953 15.8113 24.1953 17.3727ZM20.6673 16.6612C20.6475 15.3172 20.2028 14.2499 19.3332 13.4593C18.4635 12.6489 17.3864 12.2438 16.1016 12.2438C14.896 12.2438 13.8682 12.6489 13.0184 13.4593C12.1882 14.2499 11.7139 15.3172 11.5953 16.6612H20.6673Z" fill="white"/>
</svg>
