<svg width="17" height="17" viewBox="0 0 17 17" fill="none" xmlns="http://www.w3.org/2000/svg">
<path d="M7.75625 12.998L5.24167 10.4834L6.26875 9.45633L7.75625 10.9438L10.7312 7.96883L11.7583 8.99591L7.75625 12.998ZM3.54167 15.5834C3.15208 15.5834 2.81869 15.4448 2.5415 15.1676C2.26431 14.8904 2.12547 14.5568 2.125 14.1667V4.25008C2.125 3.8605 2.26383 3.52711 2.5415 3.24991C2.81917 2.97272 3.15256 2.83389 3.54167 2.83341H4.25V1.41675H5.66667V2.83341H11.3333V1.41675H12.75V2.83341H13.4583C13.8479 2.83341 14.1815 2.97225 14.4592 3.24991C14.7369 3.52758 14.8755 3.86097 14.875 4.25008V14.1667C14.875 14.5563 14.7364 14.89 14.4592 15.1676C14.182 15.4453 13.8484 15.5839 13.4583 15.5834H3.54167ZM3.54167 14.1667H13.4583V7.08341H3.54167V14.1667Z" fill="white"/>
</svg>
