<svg width="10" height="16" viewBox="0 0 10 16" fill="none" xmlns="http://www.w3.org/2000/svg">
<path d="M4.33077 15.4966V0.530636H5.28953V15.4966H4.33077ZM7.32981 5.17242C7.26745 4.61899 7.01023 4.19028 6.55813 3.88628C6.10603 3.57839 5.53701 3.42445 4.85107 3.42445C4.36 3.42445 3.93519 3.50239 3.57663 3.65829C3.21807 3.81029 2.93941 4.02074 2.74064 4.28966C2.54577 4.55469 2.44834 4.85673 2.44834 5.19581C2.44834 5.48032 2.51459 5.72585 2.6471 5.93241C2.78351 6.13897 2.96084 6.31241 3.1791 6.45271C3.40125 6.58912 3.63899 6.70409 3.89232 6.79763C4.14565 6.88727 4.38923 6.96132 4.62308 7.01978L5.79229 7.32378C6.17424 7.41732 6.56592 7.54398 6.96735 7.70377C7.36879 7.86357 7.74099 8.07403 8.08396 8.33515C8.42693 8.59628 8.70364 8.91976 8.9141 9.3056C9.12845 9.69144 9.23563 10.1533 9.23563 10.6911C9.23563 11.3693 9.06025 11.9714 8.70949 12.4976C8.36262 13.0237 7.85791 13.4388 7.19535 13.7428C6.53669 14.0468 5.73968 14.1988 4.80431 14.1988C3.90791 14.1988 3.13233 14.0565 2.47757 13.772C1.82281 13.4875 1.3103 13.0841 0.940048 12.5619C0.569797 12.0357 0.365184 11.4121 0.32621 10.6911H2.13849C2.17357 11.1237 2.31388 11.4842 2.55941 11.7726C2.80884 12.0572 3.12648 12.2696 3.51232 12.4099C3.90206 12.5463 4.32882 12.6145 4.79261 12.6145C5.30317 12.6145 5.75722 12.5346 6.15475 12.3748C6.55618 12.2111 6.87187 11.9851 7.10181 11.6966C7.33176 11.4043 7.44673 11.0633 7.44673 10.6736C7.44673 10.3189 7.3454 10.0286 7.14274 9.80252C6.94397 9.57647 6.6731 9.38939 6.33013 9.24129C5.99106 9.09319 5.60717 8.96263 5.17845 8.84961L3.7637 8.46376C2.80495 8.20264 2.04496 7.81875 1.48373 7.31209C0.926408 6.80543 0.647745 6.13508 0.647745 5.30104C0.647745 4.6112 0.834819 4.00905 1.20897 3.4946C1.58312 2.98014 2.08978 2.58066 2.72895 2.29615C3.36812 2.00775 4.08914 1.86354 4.892 1.86354C5.70265 1.86354 6.41782 2.0058 7.03751 2.29031C7.66109 2.57482 8.15216 2.9665 8.51072 3.46537C8.86928 3.96034 9.05635 4.52935 9.07194 5.17242H7.32981Z" fill="#F1FAF5"/>
</svg>
