<svg width="18" height="18" viewBox="0 0 18 18" fill="none" xmlns="http://www.w3.org/2000/svg">
<path d="M10.3037 13.4222H2.21875V10.7272C2.69525 10.7272 3.15223 10.5379 3.48917 10.201C3.82611 9.86407 4.0154 9.40708 4.0154 8.93058C4.0154 8.45408 3.82611 7.9971 3.48917 7.66016C3.15223 7.32323 2.69525 7.13394 2.21875 7.13394V4.43896H10.3037V6.68477H11.202V4.43896H14.7953V7.13394C14.3188 7.13394 13.8618 7.32323 13.5249 7.66016C13.1879 7.9971 12.9986 8.45408 12.9986 8.93058C12.9986 9.40708 13.1879 9.86407 13.5249 10.201C13.8618 10.5379 14.3188 10.7272 14.7953 10.7272V13.4222H11.202V11.1764H10.3037V13.4222ZM10.3037 7.5831V10.2781H11.202V7.5831H10.3037Z" fill="white"/>
</svg>
